<mxfile host="app.diagrams.net" modified="2023-02-23T14:07:20.121Z" agent="5.0 (Windows NT 10.0; Win64; x64) AppleWebKit/537.36 (KHTML, like Gecko) Chrome/110.0.0.0 Safari/537.36" etag="VY1vU17Ya_1MrKCwnZVp" version="20.8.23" type="github">
  <diagram id="C5RBs43oDa-KdzZeNtuy" name="Page-1">
    <mxGraphModel dx="2261" dy="796" grid="1" gridSize="10" guides="1" tooltips="1" connect="1" arrows="1" fold="1" page="1" pageScale="1" pageWidth="827" pageHeight="1169" math="0" shadow="0">
      <root>
        <mxCell id="WIyWlLk6GJQsqaUBKTNV-0" />
        <mxCell id="WIyWlLk6GJQsqaUBKTNV-1" parent="WIyWlLk6GJQsqaUBKTNV-0" />
        <mxCell id="5_EqoACuORwjVbIauBif-2" value="" style="edgeStyle=orthogonalEdgeStyle;rounded=0;orthogonalLoop=1;jettySize=auto;html=1;" edge="1" parent="WIyWlLk6GJQsqaUBKTNV-1" source="5_EqoACuORwjVbIauBif-0" target="5_EqoACuORwjVbIauBif-1">
          <mxGeometry relative="1" as="geometry" />
        </mxCell>
        <mxCell id="5_EqoACuORwjVbIauBif-0" value="start" style="ellipse;whiteSpace=wrap;html=1;" vertex="1" parent="WIyWlLk6GJQsqaUBKTNV-1">
          <mxGeometry x="340" y="100" width="120" height="80" as="geometry" />
        </mxCell>
        <mxCell id="5_EqoACuORwjVbIauBif-4" value="" style="edgeStyle=orthogonalEdgeStyle;rounded=0;orthogonalLoop=1;jettySize=auto;html=1;" edge="1" parent="WIyWlLk6GJQsqaUBKTNV-1" source="5_EqoACuORwjVbIauBif-1" target="5_EqoACuORwjVbIauBif-3">
          <mxGeometry relative="1" as="geometry" />
        </mxCell>
        <mxCell id="5_EqoACuORwjVbIauBif-1" value="a =&lt;br&gt;i = 0&lt;br&gt;min =&amp;nbsp;&lt;br&gt;max =&amp;nbsp;" style="rounded=0;whiteSpace=wrap;html=1;" vertex="1" parent="WIyWlLk6GJQsqaUBKTNV-1">
          <mxGeometry x="340" y="230" width="120" height="60" as="geometry" />
        </mxCell>
        <mxCell id="5_EqoACuORwjVbIauBif-6" value="" style="edgeStyle=orthogonalEdgeStyle;rounded=0;orthogonalLoop=1;jettySize=auto;html=1;" edge="1" parent="WIyWlLk6GJQsqaUBKTNV-1" source="5_EqoACuORwjVbIauBif-3" target="5_EqoACuORwjVbIauBif-5">
          <mxGeometry relative="1" as="geometry">
            <Array as="points">
              <mxPoint x="310" y="395" />
              <mxPoint x="310" y="395" />
            </Array>
          </mxGeometry>
        </mxCell>
        <mxCell id="5_EqoACuORwjVbIauBif-12" value="" style="edgeStyle=orthogonalEdgeStyle;rounded=0;orthogonalLoop=1;jettySize=auto;html=1;" edge="1" parent="WIyWlLk6GJQsqaUBKTNV-1" source="5_EqoACuORwjVbIauBif-3" target="5_EqoACuORwjVbIauBif-9">
          <mxGeometry relative="1" as="geometry" />
        </mxCell>
        <mxCell id="5_EqoACuORwjVbIauBif-3" value="i &amp;lt; a. dÅ‚" style="rhombus;whiteSpace=wrap;html=1;" vertex="1" parent="WIyWlLk6GJQsqaUBKTNV-1">
          <mxGeometry x="335" y="330" width="130" height="130" as="geometry" />
        </mxCell>
        <mxCell id="5_EqoACuORwjVbIauBif-5" value="min &amp;lt; a[i]" style="rhombus;whiteSpace=wrap;html=1;" vertex="1" parent="WIyWlLk6GJQsqaUBKTNV-1">
          <mxGeometry x="190" y="355" width="80" height="80" as="geometry" />
        </mxCell>
        <mxCell id="5_EqoACuORwjVbIauBif-14" style="edgeStyle=orthogonalEdgeStyle;rounded=0;orthogonalLoop=1;jettySize=auto;html=1;" edge="1" parent="WIyWlLk6GJQsqaUBKTNV-1" source="5_EqoACuORwjVbIauBif-7">
          <mxGeometry relative="1" as="geometry">
            <mxPoint x="-20" y="395" as="targetPoint" />
          </mxGeometry>
        </mxCell>
        <mxCell id="5_EqoACuORwjVbIauBif-7" value="max &amp;lt; a[i]" style="rhombus;whiteSpace=wrap;html=1;" vertex="1" parent="WIyWlLk6GJQsqaUBKTNV-1">
          <mxGeometry x="40" y="355" width="80" height="80" as="geometry" />
        </mxCell>
        <mxCell id="5_EqoACuORwjVbIauBif-9" value="min = a[i]&lt;br&gt;max = a[i]" style="rounded=0;whiteSpace=wrap;html=1;" vertex="1" parent="WIyWlLk6GJQsqaUBKTNV-1">
          <mxGeometry x="540" y="365" width="120" height="60" as="geometry" />
        </mxCell>
        <mxCell id="5_EqoACuORwjVbIauBif-13" style="edgeStyle=orthogonalEdgeStyle;rounded=0;orthogonalLoop=1;jettySize=auto;html=1;" edge="1" parent="WIyWlLk6GJQsqaUBKTNV-1" source="5_EqoACuORwjVbIauBif-10">
          <mxGeometry relative="1" as="geometry">
            <mxPoint x="400" y="310" as="targetPoint" />
            <Array as="points">
              <mxPoint x="-20" y="520" />
              <mxPoint x="-20" y="290" />
              <mxPoint x="400" y="290" />
            </Array>
          </mxGeometry>
        </mxCell>
        <mxCell id="5_EqoACuORwjVbIauBif-10" value="max = a[i]" style="rounded=0;whiteSpace=wrap;html=1;" vertex="1" parent="WIyWlLk6GJQsqaUBKTNV-1">
          <mxGeometry x="20" y="490" width="120" height="60" as="geometry" />
        </mxCell>
        <mxCell id="5_EqoACuORwjVbIauBif-15" style="edgeStyle=orthogonalEdgeStyle;rounded=0;orthogonalLoop=1;jettySize=auto;html=1;entryX=1;entryY=0.5;entryDx=0;entryDy=0;" edge="1" parent="WIyWlLk6GJQsqaUBKTNV-1" source="5_EqoACuORwjVbIauBif-11" target="5_EqoACuORwjVbIauBif-7">
          <mxGeometry relative="1" as="geometry" />
        </mxCell>
        <mxCell id="5_EqoACuORwjVbIauBif-11" value="min = a[i]" style="rounded=0;whiteSpace=wrap;html=1;" vertex="1" parent="WIyWlLk6GJQsqaUBKTNV-1">
          <mxGeometry x="190" y="490" width="120" height="60" as="geometry" />
        </mxCell>
      </root>
    </mxGraphModel>
  </diagram>
</mxfile>
